<svg version="1.1" xmlns="http://www.w3.org/2000/svg" xmlns:xlink="http://www.w3.org/1999/xlink" width="49.66781" height="49.6678" viewBox="0,0,49.66781,49.6678"><g transform="translate(-215.1661,-155.1661)"><g data-paper-data="{&quot;isPaintingLayer&quot;:true}" fill-rule="nonzero" stroke="#8b8b8b" stroke-width="2" stroke-linejoin="miter" stroke-miterlimit="10" stroke-dasharray="" stroke-dashoffset="0" style="mix-blend-mode: normal"><path d="M216.1661,180c0,-13.1631 10.6708,-23.8339 23.8339,-23.8339c13.1631,0 23.8339,10.6708 23.8339,23.8339c0,13.1631 -10.6708,23.8339 -23.8339,23.8339c-13.1631,0 -23.8339,-10.6708 -23.8339,-23.8339z" fill="#ffffff" stroke-linecap="butt"/><path d="M230.80554,175.37807c0,2.87785 -1.83809,5.21081 -4.10549,5.21081c-2.2674,0 -4.10549,-2.33296 -4.10549,-5.21081c0,-2.87785 1.83809,-5.21081 4.10549,-5.21081c2.2674,0 4.10549,2.33296 4.10549,5.21081z" fill="#ffffff" stroke-linecap="butt"/><path d="M255.96909,175.37807c0,2.87785 -1.83809,5.21081 -4.10549,5.21081c-2.2674,0 -4.10549,-2.33296 -4.10549,-5.21081c0,-2.87785 1.83809,-5.21081 4.10549,-5.21081c2.2674,0 4.10549,2.33296 4.10549,5.21081z" fill="#ffffff" stroke-linecap="butt"/><path d="M249.36893,193.32642c0,0 -5.24036,3.27883 -9.26366,3.0528c-4.02331,-0.22603 -9.4742,-4.10549 -9.4742,-4.10549" fill="none" stroke-linecap="round"/></g></g></svg>